<svg width="593" height="593" viewBox="0 0 593 593" fill="none" xmlns="http://www.w3.org/2000/svg">
<path d="M52.5518 306.166C52.5518 306.166 55.3389 392.744 127.59 450.383C199.841 508.023 299.939 512.198 380.979 517.677C462.018 523.156 524.212 477.282 533.7 407.984C543.188 338.686 481.16 318.287 447.561 239.335C413.962 160.383 416.95 134.445 345.861 85.8901C274.773 37.3353 163.502 67.092 105.198 150.278C46.8945 233.464 52.5518 306.166 52.5518 306.166Z" fill="#F58A07"/>
<path opacity="0.7" d="M52.5518 306.166C52.5518 306.166 55.3389 392.744 127.59 450.383C199.841 508.023 299.939 512.198 380.979 517.677C462.018 523.156 524.212 477.282 533.7 407.984C543.188 338.686 481.16 318.287 447.561 239.335C413.962 160.383 416.95 134.445 345.861 85.8901C274.773 37.3353 163.502 67.092 105.198 150.278C46.8945 233.464 52.5518 306.166 52.5518 306.166Z" fill="white"/>
<path d="M405.007 482.951C452.299 482.951 490.636 471.577 490.636 457.547C490.636 443.517 452.299 432.143 405.007 432.143C357.715 432.143 319.378 443.517 319.378 457.547C319.378 471.577 357.715 482.951 405.007 482.951Z" fill="#11EDDA" stroke="#214F4B" stroke-width="1.4149" stroke-linecap="round" stroke-linejoin="round"/>
<path d="M405.007 443.825C445.509 443.825 479.429 452.127 488.336 463.382C489.742 461.754 490.553 459.697 490.636 457.547C490.636 443.505 452.293 432.131 405.007 432.131C357.721 432.131 319.366 443.505 319.366 457.547C319.449 459.697 320.261 461.754 321.667 463.382C330.574 452.174 364.493 443.825 405.007 443.825Z" fill="white" stroke="#214F4B" stroke-width="1.4149" stroke-linecap="round" stroke-linejoin="round"/>
<path d="M393.313 479.761C364.706 478.468 343.121 472.645 343.121 465.529C343.136 464.752 343.379 463.997 343.821 463.358" stroke="white" stroke-width="1.4149" stroke-linecap="round" stroke-linejoin="round"/>
<path d="M459.693 458.603C464.592 460.678 467.39 463.05 467.39 465.576C467.39 473.558 439.567 480.022 405.256 480.022H403.773" stroke="white" stroke-width="1.4149" stroke-linecap="round" stroke-linejoin="round"/>
<path d="M351.482 458.33C362.239 454.025 382.318 451.119 405.256 451.119C418.308 451.018 431.342 452.086 444.204 454.309" stroke="white" stroke-width="1.4149" stroke-linecap="round" stroke-linejoin="round"/>
<path d="M392.495 470.534C385.248 469.526 380.397 467.687 380.397 465.576C380.397 462.386 391.534 459.8 405.303 459.8C419.073 459.8 430.15 462.386 430.15 465.576C430.15 468.316 421.967 470.605 410.984 471.198" stroke="white" stroke-width="1.4149" stroke-linecap="round" stroke-linejoin="round"/>
<path d="M61.103 355.42C98.4502 344.806 177.035 323.861 220.407 322.284C278.71 320.22 377.148 362.536 438.607 369.949C500.065 377.361 541.362 375.25 541.362 375.25" stroke="#214F4B" stroke-width="1.4149" stroke-linecap="round" stroke-linejoin="round"/>
<path d="M40.3242 361.481C40.3242 361.481 43.5501 360.497 49.2074 358.848" stroke="#214F4B" stroke-width="1.4149" stroke-linecap="round" stroke-linejoin="round"/>
<path d="M524.77 295.456C503.242 290.727 481.217 288.644 459.184 289.254C413.618 290.783 364.304 296.808 303.332 304.672C242.359 312.535 155.532 269.092 96.4933 285.209C37.4542 301.327 41.9373 306.178 41.9373 306.178" stroke="#214F4B" stroke-width="1.4149" stroke-linecap="round" stroke-linejoin="round"/>
<path d="M541.564 299.821C541.564 299.821 539.263 299.062 535.1 297.959" stroke="#214F4B" stroke-width="1.4149" stroke-linecap="round" stroke-linejoin="round"/>
<path d="M432.238 187.803C431.581 185.138 430.051 182.769 427.89 181.075C425.729 179.382 423.063 178.462 420.318 178.462C417.573 178.462 414.907 179.382 412.746 181.075C410.586 182.769 409.055 185.138 408.399 187.803H432.238Z" stroke="#214F4B" stroke-width="1.4149" stroke-linecap="round" stroke-linejoin="round"/>
<path d="M552.676 187.803C551.956 184.765 550.317 182.023 547.983 179.95C545.648 177.877 542.732 176.573 539.63 176.216C540.606 171.064 540.43 165.76 539.116 160.683C537.803 155.607 535.383 150.884 532.031 146.852C528.679 142.82 524.477 139.578 519.726 137.36C514.975 135.141 509.792 134 504.548 134.018C496.175 134.018 488.069 136.964 481.649 142.339C475.228 147.714 470.903 155.176 469.431 163.419C466.064 160.786 462.024 159.152 457.773 158.705C453.522 158.258 449.231 159.015 445.39 160.89C441.549 162.765 438.312 165.682 436.05 169.308C433.787 172.935 432.589 177.124 432.594 181.399C432.601 183.575 432.916 185.739 433.531 187.827L552.676 187.803Z" stroke="#214F4B" stroke-width="1.4149" stroke-linecap="round" stroke-linejoin="round"/>
<path d="M220.086 216.433C219.76 215.073 218.985 213.863 217.886 212.997C216.788 212.131 215.43 211.66 214.032 211.66C212.633 211.66 211.275 212.131 210.177 212.997C209.078 213.863 208.303 215.073 207.977 216.433H220.086Z" stroke="#214F4B" stroke-width="1.4149" stroke-linecap="round" stroke-linejoin="round"/>
<path d="M281.224 216.433C280.864 214.882 280.034 213.481 278.847 212.419C277.661 211.358 276.175 210.689 274.594 210.503C275.165 208.111 275.242 205.627 274.821 203.203C274.4 200.78 273.49 198.467 272.146 196.407C270.803 194.347 269.053 192.582 267.005 191.221C264.956 189.859 262.652 188.928 260.232 188.486C257.813 188.044 255.328 188.1 252.931 188.65C250.533 189.199 248.273 190.232 246.287 191.684C244.302 193.136 242.633 194.977 241.383 197.095C240.132 199.213 239.326 201.564 239.014 204.004C237.305 202.668 235.255 201.839 233.098 201.612C230.94 201.385 228.763 201.769 226.813 202.72C224.863 203.671 223.22 205.15 222.07 206.99C220.921 208.829 220.311 210.955 220.311 213.124C220.316 214.232 220.476 215.334 220.785 216.398L281.224 216.433Z" stroke="#214F4B" stroke-width="1.4149" stroke-linecap="round" stroke-linejoin="round"/>
<path d="M275.068 235.575C274.864 234.716 274.376 233.951 273.683 233.404C272.99 232.856 272.133 232.559 271.25 232.559C270.367 232.559 269.509 232.856 268.816 233.404C268.123 233.951 267.635 234.716 267.431 235.575H275.068Z" stroke="#214F4B" stroke-width="1.4149" stroke-linecap="round" stroke-linejoin="round"/>
<path d="M313.661 235.575C313.43 234.601 312.905 233.721 312.155 233.057C311.406 232.392 310.47 231.975 309.474 231.863C309.603 231.171 309.667 230.468 309.664 229.764C309.629 226.935 308.546 224.22 306.625 222.143C304.704 220.066 302.081 218.775 299.263 218.52C296.446 218.265 293.634 219.063 291.371 220.761C289.108 222.459 287.555 224.936 287.012 227.712C285.932 226.87 284.638 226.348 283.276 226.205C281.915 226.063 280.54 226.306 279.31 226.907C278.08 227.508 277.044 228.442 276.319 229.604C275.594 230.765 275.21 232.107 275.211 233.476C275.212 234.174 275.312 234.869 275.507 235.54L313.661 235.575Z" stroke="#214F4B" stroke-width="1.4149" stroke-linecap="round" stroke-linejoin="round"/>
<path d="M192.903 372.202C192.486 372.208 192.075 372.097 191.717 371.882C191.199 371.562 190.823 371.055 190.668 370.465C190.514 369.875 190.592 369.249 190.887 368.716C191.468 367.696 338.105 207.787 405.197 149.151C405.431 148.963 405.728 148.871 406.027 148.893C406.326 148.915 406.606 149.05 406.81 149.27C407.005 149.505 407.102 149.807 407.08 150.112C407.058 150.417 406.919 150.702 406.692 150.907C339.932 209.293 195.465 370.032 194.884 371.04C194.686 371.392 194.399 371.685 194.051 371.889C193.703 372.093 193.307 372.202 192.903 372.202Z" fill="#214F4B"/>
<path d="M201.003 340.382C201.003 340.382 208.274 332.626 212.638 332.626C217.003 332.626 225.245 339.896 224.759 343.774C224.273 347.652 217.003 344.26 217.003 344.26C217.003 344.26 210.207 353.475 203.423 352.017C196.639 350.558 201.003 340.382 201.003 340.382Z" fill="#F58A07" stroke="#214F4B" stroke-width="1.4149" stroke-linecap="round" stroke-linejoin="round"/>
<path d="M217.038 344.237C217.038 344.237 221.485 347.32 221.877 349.49C222.268 351.661 216.943 357.792 211.025 359.168C205.107 360.544 201.94 357.188 203.719 354.033C205.498 350.878 212.555 344.521 217.038 344.237Z" fill="#F58A07" stroke="#214F4B" stroke-width="1.4149" stroke-linecap="round" stroke-linejoin="round"/>
<path d="M399.682 316.14V155.686C399.682 155.686 396.444 167.297 396.444 168.139" stroke="#214F4B" stroke-width="1.4149" stroke-linecap="round" stroke-linejoin="round"/>
<path d="M466.596 324.596H343.561V423.177H466.596V324.596Z" fill="#F58A07" stroke="#214F4B" stroke-width="1.4149" stroke-linecap="round" stroke-linejoin="round"/>
<path d="M401.437 324.181V318.536C401.437 318.162 401.289 317.803 401.024 317.538C400.759 317.273 400.4 317.125 400.026 317.125C399.652 317.125 399.293 317.273 399.028 317.538C398.763 317.803 398.615 318.162 398.615 318.536V324.181H401.437Z" fill="#214F4B"/>
<path d="M412.728 310.447V310.732C412.614 310.516 412.443 310.335 412.234 310.208C412.026 310.081 411.787 310.012 411.542 310.009C411.165 310.009 410.803 310.159 410.536 310.425C410.269 310.692 410.119 311.054 410.119 311.432V326.506C410.119 327.658 409.662 328.763 408.848 329.579C408.035 330.395 406.931 330.855 405.778 330.858C405.182 330.859 404.592 330.734 404.047 330.491C403.732 330.96 403.595 331.525 403.66 332.086C403.726 332.647 403.989 333.166 404.403 333.551C404.856 333.636 405.317 333.68 405.778 333.681C406.721 333.681 407.654 333.496 408.524 333.135C409.395 332.774 410.186 332.246 410.852 331.58C411.518 330.913 412.047 330.122 412.407 329.252C412.768 328.381 412.954 327.448 412.954 326.506V319.52H416.203L412.728 310.447Z" fill="#214F4B"/>
<path d="M399.801 154.18C399.801 154.18 402.315 145.249 400.086 146.08C397.856 146.91 399.801 154.18 399.801 154.18Z" stroke="#214F4B" stroke-width="1.4149" stroke-linecap="round" stroke-linejoin="round"/>
<path d="M399.801 154.18C399.801 154.18 390.313 150.824 391.155 153.895C391.997 156.967 399.801 154.18 399.801 154.18Z" stroke="#214F4B" stroke-width="1.4149" stroke-linecap="round" stroke-linejoin="round"/>
<path d="M195.204 232.017C195.204 232.017 183.498 225.459 160.537 228.744C137.576 232.029 133.2 250.958 136.947 270.633C140.695 290.309 162.411 306.972 165.696 305.573C168.981 304.173 164.759 260.125 172.255 251.693C179.75 243.26 204.111 244.672 205.463 238.113C206.815 231.555 195.204 232.017 195.204 232.017Z" fill="#214F4B" stroke="#214F4B" stroke-width="1.4149" stroke-linecap="round" stroke-linejoin="round"/>
<path d="M154.394 243.699L156.766 259.2C156.766 259.2 142.059 299.346 144.443 304.921C146.827 310.495 169.076 312.464 169.076 312.464C169.076 312.464 205.249 316.84 215.983 312.464C226.716 308.087 221.154 295.373 219.956 291.803C218.758 288.234 212.009 259.604 212.009 259.604C212.009 259.604 214.381 252.843 214.381 249.273C214.381 245.704 213.978 235.753 212.389 233.369C210.8 230.985 182.976 228.198 170.654 230.191C158.331 232.183 152.804 235.362 154.394 243.699Z" fill="#757575" stroke="#214F4B" stroke-width="1.4149" stroke-linecap="round" stroke-linejoin="round"/>
<path d="M160.762 261.596C160.762 261.596 160.359 296.168 162.352 302.928C164.344 309.688 172.29 317.635 188.977 315.642C205.664 313.65 207.266 297.757 207.266 297.757L206.08 260.801L160.762 261.596Z" fill="white" stroke="#214F4B" stroke-width="1.4149" stroke-linecap="round" stroke-linejoin="round"/>
<path d="M189.381 286.431C189.383 287.022 189.21 287.601 188.883 288.095C188.556 288.588 188.09 288.972 187.544 289.201C186.998 289.429 186.397 289.489 185.816 289.375C185.236 289.261 184.702 288.978 184.283 288.56C183.864 288.143 183.578 287.61 183.462 287.03C183.345 286.45 183.404 285.849 183.63 285.302C183.856 284.755 184.239 284.287 184.73 283.959C185.222 283.63 185.8 283.454 186.392 283.454C186.784 283.452 187.172 283.528 187.535 283.677C187.897 283.826 188.227 284.045 188.505 284.322C188.782 284.598 189.003 284.927 189.153 285.289C189.303 285.651 189.381 286.039 189.381 286.431Z" stroke="#214F4B" stroke-width="1.4149" stroke-miterlimit="10"/>
<path d="M188.977 298.955C188.977 299.35 188.86 299.735 188.641 300.063C188.421 300.391 188.109 300.646 187.744 300.797C187.38 300.947 186.978 300.986 186.592 300.908C186.205 300.83 185.85 300.639 185.572 300.36C185.293 300.08 185.105 299.724 185.029 299.336C184.954 298.949 184.995 298.548 185.147 298.184C185.3 297.82 185.557 297.51 185.886 297.293C186.216 297.075 186.602 296.96 186.997 296.963C187.258 296.963 187.516 297.014 187.757 297.114C187.998 297.215 188.217 297.362 188.401 297.547C188.585 297.732 188.731 297.952 188.83 298.193C188.929 298.435 188.979 298.694 188.977 298.955Z" fill="#214F4B"/>
<path d="M176.975 273.681C178.244 275.057 178.683 276.706 177.971 277.382C177.26 278.058 175.599 277.488 174.354 276.125C173.109 274.761 172.634 273.112 173.358 272.436C174.081 271.76 175.706 272.317 176.975 273.681Z" fill="#214F4B"/>
<path d="M193.116 273.681C191.847 275.057 191.396 276.706 192.12 277.382C192.843 278.058 194.492 277.488 195.678 276.125C196.864 274.761 197.398 273.112 196.674 272.436C195.951 271.76 194.385 272.317 193.116 273.681Z" fill="#214F4B"/>
<path d="M168.483 268.997C169.373 267.683 170.653 266.681 172.142 266.132C173.631 265.583 175.255 265.515 176.785 265.937" stroke="#214F4B" stroke-width="1.4149" stroke-linecap="round" stroke-linejoin="round"/>
<path d="M192.488 266.376C192.488 266.376 198.157 264.632 199.913 269.435" stroke="#214F4B" stroke-width="1.4149" stroke-linecap="round" stroke-linejoin="round"/>
<path d="M211.63 488.181C211.63 488.181 217.88 484.434 221.344 482.963C221.668 482.814 222.001 482.683 222.34 482.572C225.4 481.552 234.069 482.062 242.217 476.962C250.365 471.862 246.297 465.742 240.177 464.212C234.058 462.682 227.44 460.654 227.44 460.654L225.91 436.685C225.91 436.685 207.55 441.785 201.431 444.335C195.311 446.885 198.881 483.082 199.391 486.141C199.901 489.201 199.901 491.241 211.63 488.181Z" fill="#214F4B" stroke="#214F4B" stroke-width="1.4149" stroke-linecap="round" stroke-linejoin="round"/>
<path d="M232.029 476.962C221.355 479.002 221.355 481.042 209.59 483.082C206.144 483.769 202.63 484.056 199.118 483.935C199.236 485.027 199.331 485.797 199.39 486.141C199.9 489.201 199.9 491.241 211.63 488.181C211.63 488.181 217.88 484.434 221.343 482.963C221.668 482.814 222 482.683 222.34 482.572C225.399 481.552 234.069 482.062 242.217 476.962C244.838 475.337 246.178 473.594 246.617 471.933C241.986 474.219 237.085 475.908 232.029 476.962Z" fill="white" stroke="#214F4B" stroke-width="1.4149" stroke-linecap="round" stroke-linejoin="round"/>
<path d="M236.275 463.904C236.275 463.904 235.884 491.727 235.089 497.681C234.295 503.635 235.481 511.202 244.577 511.202C253.674 511.202 271.606 505.272 277.963 504.086C284.32 502.9 294.662 500.101 299.027 490.174C303.391 480.247 276.777 481.421 276.777 481.421L278.366 461.152C278.366 461.152 250.982 466.679 236.275 463.904Z" fill="#248232" stroke="#214F4B" stroke-width="1.4149" stroke-linecap="round" stroke-linejoin="round"/>
<path d="M299.074 490.138C299.561 489.174 299.679 488.065 299.406 487.019C296.681 490.718 292.987 493.591 288.732 495.321C279.244 499.294 261.3 503.623 247.791 505.663C241.612 506.564 237.698 505.556 235.243 504.204C236.121 508.059 238.694 511.225 244.613 511.225C253.757 511.225 271.641 505.295 277.998 504.109C284.355 502.923 294.709 500.065 299.074 490.138Z" fill="white" stroke="#214F4B" stroke-width="1.4149" stroke-linecap="round" stroke-linejoin="round"/>
<path d="M276.824 481.386C276.824 481.386 278.805 488.146 273.266 492.522" stroke="white" stroke-width="1.4149" stroke-linecap="round" stroke-linejoin="round"/>
<path d="M233.5 449.198C233.5 449.198 232.883 461.283 233.559 463.702C236.097 472.882 236.904 470.735 255.987 470.332C275.069 469.929 282.778 462.315 284.771 457.547C286.763 452.779 284.771 442.437 283.976 438.856C283.182 435.274 276.86 434.112 274.429 434.491C271.998 434.871 234.686 445.224 233.5 449.198Z" fill="#757575" stroke="#214F4B" stroke-width="1.4149" stroke-linecap="round" stroke-linejoin="round"/>
<path d="M102.329 479.405V506.114C102.337 507.159 102.632 508.182 103.179 509.072C103.727 509.963 104.507 510.687 105.436 511.166L148.369 533.332C149.133 533.73 149.977 533.949 150.837 533.973C151.698 533.998 152.553 533.827 153.338 533.475L216.588 509.363C217.597 508.911 218.454 508.177 219.056 507.249C219.657 506.321 219.978 505.239 219.98 504.133V471.85L147.634 493.708L102.329 479.405Z" fill="#D9011D"/>
<path opacity="0.18" d="M150.824 492.747L147.646 493.708L102.329 479.405V506.114C102.337 507.159 102.632 508.182 103.179 509.072C103.727 509.963 104.507 510.687 105.436 511.166L148.369 533.332C149.128 533.729 149.968 533.948 150.824 533.973V492.747Z" fill="black"/>
<path d="M102.329 479.405V506.114C102.337 507.159 102.632 508.182 103.179 509.072C103.727 509.963 104.507 510.687 105.436 511.166L148.369 533.332C149.133 533.73 149.977 533.949 150.837 533.973C151.698 533.998 152.553 533.827 153.338 533.475L216.588 509.363C217.597 508.911 218.454 508.177 219.056 507.249C219.657 506.321 219.978 505.239 219.98 504.133V471.85L147.634 493.708L102.329 479.405Z" stroke="#214F4B" stroke-width="1.4149" stroke-linecap="round" stroke-linejoin="round"/>
<path d="M168.412 434.313L99.031 456.61C98.4887 456.784 98.016 457.126 97.6812 457.586C97.3464 458.047 97.167 458.602 97.169 459.172V478.954C97.1795 479.452 97.328 479.938 97.5982 480.357C97.8683 480.776 98.2493 481.111 98.6989 481.326L147.064 504.346C147.39 504.502 147.743 504.591 148.104 504.607C148.465 504.623 148.825 504.567 149.163 504.441L221.782 477.27C222.296 477.079 222.739 476.737 223.053 476.287C223.366 475.838 223.535 475.304 223.537 474.756L223.668 456.195C223.664 455.581 223.452 454.986 223.066 454.508C222.681 454.029 222.144 453.696 221.545 453.562L169.788 434.242C169.33 434.151 168.857 434.175 168.412 434.313Z" fill="white"/>
<path d="M146.981 504.335C147.307 504.49 147.66 504.579 148.021 504.595C148.382 504.612 148.742 504.555 149.08 504.429L221.782 477.27C222.296 477.079 222.739 476.737 223.053 476.287C223.366 475.838 223.535 475.304 223.537 474.756L223.668 456.195C223.67 455.563 223.442 454.952 223.027 454.475L148.013 482.18L146.981 504.335Z" fill="#F58A07"/>
<path opacity="0.5" d="M146.981 504.335C147.307 504.49 147.66 504.579 148.021 504.595C148.382 504.612 148.742 504.555 149.08 504.429L221.782 477.27C222.296 477.079 222.739 476.737 223.053 476.287C223.366 475.838 223.535 475.304 223.537 474.756L223.668 456.195C223.67 455.563 223.442 454.952 223.027 454.475L148.013 482.18L146.981 504.335Z" fill="white"/>
<path d="M97.1689 459.112V478.895C97.1794 479.393 97.328 479.879 97.5981 480.297C97.8683 480.716 98.2493 481.052 98.6989 481.267L147.064 504.346C147.387 504.502 147.738 504.591 148.096 504.607V482.18L97.252 458.65C97.206 458.8 97.1782 458.955 97.1689 459.112Z" fill="#F58A07"/>
<path d="M168.412 434.313L99.031 456.61C98.4887 456.784 98.016 457.126 97.6812 457.586C97.3464 458.047 97.167 458.602 97.169 459.172V478.954C97.1795 479.452 97.328 479.938 97.5982 480.357C97.8683 480.776 98.2493 481.111 98.6989 481.326L147.064 504.346C147.39 504.502 147.743 504.591 148.104 504.607C148.465 504.623 148.825 504.567 149.163 504.441L221.782 477.27C222.296 477.079 222.739 476.737 223.053 476.287C223.366 475.838 223.535 475.304 223.537 474.756L223.668 456.195C223.664 455.581 223.452 454.986 223.066 454.508C222.681 454.029 222.144 453.696 221.545 453.562L169.788 434.242C169.33 434.151 168.857 434.175 168.412 434.313V434.313Z" stroke="#214F4B" stroke-width="1.4149" stroke-linecap="round" stroke-linejoin="round"/>
<path d="M263.708 397.927C263.708 397.927 272.84 402.291 277.619 411.044C282.399 419.797 278.805 436.472 276.018 441.643C273.231 446.814 254.563 449.197 248.206 449.197C241.85 449.197 240.652 448.403 240.652 448.403C240.652 448.403 220.383 452.376 207.657 454.76C194.931 457.144 198.169 427.34 202.095 413.819C206.02 400.299 228.329 393.55 237.473 393.55C246.617 393.55 263.708 397.927 263.708 397.927Z" fill="#214F4B" stroke="#214F4B" stroke-width="1.4149" stroke-linecap="round" stroke-linejoin="round"/>
<path d="M240.651 448.403C240.651 448.403 257.742 442.473 264.893 427.34" stroke="white" stroke-width="1.4149" stroke-linecap="round" stroke-linejoin="round"/>
<path d="M256.947 439.65C262.455 437.341 267.452 433.968 271.654 429.723" stroke="white" stroke-width="1.4149" stroke-linecap="round" stroke-linejoin="round"/>
<path d="M216.801 411.044C216.801 411.044 221.545 436.08 219.173 446.41C216.801 456.74 202.877 458.342 199.699 457.144C196.52 455.946 198.11 431.313 198.11 418.99C198.11 406.668 210.444 407.462 216.801 411.044Z" fill="#757575" stroke="#214F4B" stroke-width="1.4149" stroke-linecap="round" stroke-linejoin="round"/>
<path d="M115.446 344.26C115.446 344.26 112.671 360.544 114.651 368.514C115.66 372.953 117.552 377.143 120.214 380.836C120.214 380.836 110.275 395.543 112.267 407.854C114.26 420.164 119.383 421.765 119.383 421.765C119.383 421.765 115.019 444.43 122.941 452.376C130.864 460.322 148.381 469.063 167.855 465.493C187.329 461.923 200.447 461.117 204.42 454.357C208.393 447.596 206.009 417.792 206.009 417.792C206.009 417.792 205.214 384.81 204.42 364.529C203.625 344.248 200.862 327.965 191.302 320.018C181.743 312.072 139.628 324.395 126.915 332.732C114.201 341.07 115.446 344.26 115.446 344.26Z" fill="#F58A07"/>
<path opacity="0.3" d="M118.28 344.26C118.28 344.26 115.493 360.556 117.485 368.514C118.488 372.955 120.381 377.147 123.048 380.836C123.048 380.836 113.109 395.543 115.101 407.854C117.094 420.164 122.217 421.765 122.217 421.765C122.217 421.765 117.841 444.43 125.775 452.376C133.71 460.322 151.263 469.063 170.784 465.493C190.306 461.923 203.387 461.117 207.36 454.357C211.333 447.596 208.95 417.792 208.95 417.792C208.95 417.792 208.155 384.81 207.36 364.529C206.566 344.248 203.802 327.965 194.243 320.018C184.684 312.072 142.569 324.395 129.855 332.732C117.141 341.07 118.28 344.26 118.28 344.26Z" fill="black"/>
<path d="M115.446 344.26C115.446 344.26 112.671 360.544 114.651 368.514C115.66 372.953 117.552 377.143 120.214 380.836C120.214 380.836 110.275 395.543 112.267 407.854C114.26 420.164 119.383 421.765 119.383 421.765C119.383 421.765 115.019 444.43 122.941 452.376C130.864 460.322 148.381 469.063 167.855 465.493C187.329 461.923 200.447 461.117 204.42 454.357C208.393 447.596 206.009 417.792 206.009 417.792C206.009 417.792 205.214 384.81 204.42 364.529C203.625 344.248 200.862 327.965 191.302 320.018C181.743 312.072 139.628 324.395 126.915 332.732C114.201 341.07 115.446 344.26 115.446 344.26Z" stroke="#214F4B" stroke-width="1.4149" stroke-linecap="round" stroke-linejoin="round"/>
<path d="M120.213 380.836C126.366 385.034 133.406 387.753 140.783 388.782C148.161 389.81 155.676 389.121 162.743 386.766" stroke="#214F4B" stroke-width="1.4149" stroke-linecap="round" stroke-linejoin="round"/>
<path d="M119.419 421.765C119.419 421.765 139.688 441.643 173.085 422.56" stroke="#214F4B" stroke-width="1.4149" stroke-linecap="round" stroke-linejoin="round"/>
<path d="M198.513 324.786C198.513 324.786 190.97 313.258 180.628 306.901C170.286 300.544 143.672 295.777 132.939 293.784C122.206 291.792 110.678 292.598 107.499 304.458C104.321 316.318 104.712 336.255 107.891 344.996C111.069 353.736 124.186 358.907 134.528 352.954C144.87 347 173.477 323.932 183.415 322.746C193.354 321.56 197.718 329.162 198.513 324.786Z" fill="#757575"/>
<path opacity="0.3" d="M176.465 322.592C182.526 320.066 167.369 324.608 166.361 323.09C165.353 321.572 176.963 314.005 179.49 312.997C182.016 311.989 164.843 315.523 165.353 312.997C165.862 310.471 182.016 309.961 170.903 307.435C159.79 304.909 123.463 298.338 116.347 295.812C115.803 295.635 115.287 295.379 114.817 295.053C112.977 296.002 111.368 297.344 110.103 298.983C108.839 300.623 107.95 302.52 107.499 304.541C104.321 316.46 104.712 336.338 107.891 345.079C110.666 352.693 120.937 357.591 130.425 354.804C134.801 351.246 138.845 346.573 145.689 342.268C159.292 333.657 170.405 325.071 176.465 322.592Z" fill="#87BD66"/>
<path d="M198.513 324.786C198.513 324.786 190.97 313.258 180.628 306.901C170.286 300.544 143.672 295.777 132.939 293.784C122.206 291.792 110.678 292.598 107.499 304.458C104.321 316.318 104.712 336.255 107.891 344.996C111.069 353.736 124.186 358.907 134.528 352.954C144.87 347 173.477 323.932 183.415 322.746C193.354 321.56 197.718 329.162 198.513 324.786Z" stroke="#214F4B" stroke-width="1.4149" stroke-linecap="round" stroke-linejoin="round"/>
<path d="M241.446 378.844C241.446 378.844 250.591 380.03 256.544 382.402C262.498 384.774 266.483 399.492 264.099 401.473C261.715 403.454 256.983 401.081 256.983 401.081C253.245 402.397 249.382 403.327 245.455 403.857C240.652 404.284 235.481 381.631 241.446 378.844Z" fill="#F58A07" stroke="#214F4B" stroke-width="1.4149" stroke-linecap="round" stroke-linejoin="round"/>
<path d="M211.239 377.646C211.239 377.646 212.828 377.646 221.569 373.673C230.309 369.7 237.473 369.7 243.035 378.417C248.598 387.134 250.981 397.903 247.779 404.26C244.577 410.617 232.681 414.993 226.313 414.993C219.944 414.993 219.197 406.691 219.197 406.691C219.197 406.691 218.402 393.574 214.453 388.806C210.503 384.039 209.649 378.844 211.239 377.646Z" fill="#757575" stroke="#214F4B" stroke-width="1.4149" stroke-linecap="round" stroke-linejoin="round"/>
<path d="M181.826 324.786C190.566 321.608 201.703 323.6 205.676 334.725C209.649 345.849 213.219 378.441 213.219 378.441C213.219 378.441 223.158 379.627 227.131 384.015C231.104 388.403 233.061 399.516 232.302 405.078C231.543 410.641 217.595 420.971 201.703 421.374C185.811 421.777 174.271 414.258 168.708 393.942C163.146 373.626 165.352 342.754 165.352 342.754C165.352 342.754 167.368 333.657 170.404 331.629" fill="#F58A07"/>
<path opacity="0.3" d="M232.302 405.078C233.096 399.516 231.116 388.379 227.131 384.015C226.977 383.837 226.787 383.671 226.621 383.505C227.097 387.077 227.382 390.672 227.475 394.274C228.269 417.602 195.666 413.701 189.096 396.8C185.538 387.703 184.542 347.795 173.939 344.77C167.819 343.027 165.732 347.818 165.067 352.195C164.854 363.639 165.234 381.275 168.708 393.942C174.271 414.222 185.799 421.765 201.703 421.374C217.607 420.983 231.507 410.641 232.302 405.078Z" fill="black"/>
<path d="M181.826 324.786C190.566 321.608 201.703 323.6 205.676 334.725C209.649 345.849 213.219 378.441 213.219 378.441C213.219 378.441 223.158 379.627 227.131 384.015C231.104 388.403 233.061 399.516 232.302 405.078C231.543 410.641 217.595 420.971 201.703 421.374C185.811 421.777 174.271 414.258 168.708 393.942C163.146 373.626 165.352 342.754 165.352 342.754C165.352 342.754 167.368 333.657 170.404 331.629" stroke="#214F4B" stroke-width="1.4149" stroke-linecap="round" stroke-linejoin="round"/>
<path d="M213.22 378.441C213.22 378.441 216.327 392.922 200.363 400.868" stroke="#214F4B" stroke-width="1.4149" stroke-linecap="round" stroke-linejoin="round"/>
<path d="M134.137 126.013C134.137 122.715 135.655 120.284 139.082 120.284C142.51 120.284 144.099 122.656 144.099 126.013V137.576C144.099 140.873 142.569 143.304 139.082 143.304C135.595 143.304 134.137 140.932 134.137 137.576V126.013ZM135.619 137.683C135.619 140.15 136.592 141.952 139.082 141.952C141.573 141.952 142.64 140.15 142.64 137.683V125.918C142.64 123.463 141.644 121.648 139.082 121.648C136.521 121.648 135.619 123.463 135.619 125.918V137.683Z" fill="#214F4B"/>
<path d="M146.46 126.013C146.46 122.715 147.978 120.284 151.406 120.284C154.833 120.284 156.422 122.656 156.422 126.013V137.576C156.422 140.873 154.904 143.304 151.406 143.304C147.907 143.304 146.46 140.932 146.46 137.576V126.013ZM147.942 137.683C147.942 140.15 148.915 141.952 151.406 141.952C153.896 141.952 154.964 140.15 154.964 137.683V125.918C154.964 123.463 153.967 121.648 151.406 121.648C148.844 121.648 147.942 123.463 147.942 125.918V137.683Z" fill="#214F4B"/>
<path d="M163.573 120.486C167.06 120.486 168.424 122.68 168.424 125.977V128.444C168.424 132.002 166.764 133.805 163.182 133.805H160.371V143.126H158.924V120.486H163.573ZM163.182 132.452C165.803 132.452 166.93 131.266 166.93 128.539V125.882C166.93 123.427 166.088 121.838 163.573 121.838H160.371V132.512L163.182 132.452Z" fill="#214F4B"/>
<path d="M180.189 125.953V126.428H178.766V125.846C178.766 123.474 177.865 121.648 175.409 121.648C172.954 121.648 172.041 123.427 172.041 125.823C172.041 131.314 180.225 131.409 180.225 137.683C180.225 140.944 178.801 143.34 175.338 143.34C171.875 143.34 170.464 140.968 170.464 137.683V136.497H171.887V137.754C171.887 140.126 172.824 141.929 175.315 141.929C177.805 141.929 178.742 140.173 178.742 137.754C178.742 132.322 170.559 132.227 170.559 125.894C170.559 122.502 172.041 120.296 175.374 120.26C178.707 120.225 180.189 122.68 180.189 125.953Z" fill="#214F4B"/>
<path d="M183.913 140.28V143.126H182.466V140.28H183.913Z" fill="#214F4B"/>
<path d="M187.957 140.28V143.126H186.51V140.28H187.957Z" fill="#214F4B"/>
<path d="M192.002 140.28V143.126H190.543V140.28H192.002Z" fill="#214F4B"/>
<path d="M138.916 153.421C142.474 153.421 143.767 155.615 143.767 158.924V161.379C143.767 164.937 142.118 166.752 138.537 166.752H135.714V176.062H134.231V153.421H138.916ZM138.537 165.388C141.146 165.388 142.284 164.202 142.284 161.474V158.817C142.284 156.362 141.442 154.785 138.916 154.785H135.714V165.388H138.537Z" fill="#214F4B"/>
<path d="M147.752 171.045L146.566 176.062H145.202L150.148 153.385H152.318L157.359 176.062H155.876L154.69 171.045H147.752ZM147.977 169.752H154.572L151.239 155.105L147.977 169.752Z" fill="#214F4B"/>
<path d="M169.325 158.924V160.608H167.902V158.829C167.902 156.457 166.965 154.56 164.475 154.56C161.984 154.56 161.047 156.41 161.047 158.829V170.606C161.047 172.978 161.984 174.84 164.475 174.84C166.965 174.84 167.902 173.026 167.902 170.606V165.72H164.854V164.368H169.278V170.511C169.278 173.773 167.855 176.228 164.392 176.228C160.928 176.228 159.517 173.773 159.517 170.511V158.924C159.517 155.663 160.94 153.207 164.392 153.207C167.843 153.207 169.325 155.686 169.325 158.924Z" fill="#214F4B"/>
<path d="M179.489 163.905V165.257H173.31V174.745H180.746V176.109H171.816V153.421H180.746V154.785H173.31V163.905H179.489Z" fill="#214F4B"/>
<path d="M189.547 176.062H188.183V153.421H190.128L196.876 172.539V153.421H198.228V176.062H196.579L189.463 155.9L189.547 176.062Z" fill="#214F4B"/>
<path d="M200.743 158.924C200.743 155.627 202.261 153.207 205.688 153.207C209.116 153.207 210.705 155.579 210.705 158.924V170.511C210.705 173.808 209.175 176.228 205.688 176.228C202.201 176.228 200.743 173.856 200.743 170.511V158.924ZM202.225 170.606C202.225 173.061 203.198 174.876 205.688 174.876C208.179 174.876 209.246 173.061 209.246 170.606V158.829C209.246 156.374 208.25 154.56 205.688 154.56C203.127 154.56 202.225 156.374 202.225 158.829V170.606Z" fill="#214F4B"/>
<path d="M217.038 176.062V154.785H212.448V153.421H223.122V154.785H218.497V176.062H217.038Z" fill="#214F4B"/>
<path d="M237.295 164.451V165.803H231.436V176.062H229.954V153.421H238.552V154.785H231.436V164.451H237.295Z" fill="#214F4B"/>
<path d="M240.758 158.924C240.758 155.627 242.276 153.207 245.703 153.207C249.131 153.207 250.72 155.579 250.72 158.924V170.511C250.72 173.808 249.202 176.228 245.703 176.228C242.205 176.228 240.758 173.856 240.758 170.511V158.924ZM242.24 170.606C242.24 173.061 243.213 174.876 245.703 174.876C248.194 174.876 249.261 173.061 249.261 170.606V158.829C249.261 156.374 248.265 154.56 245.703 154.56C243.142 154.56 242.24 156.374 242.24 158.829V170.606Z" fill="#214F4B"/>
<path d="M254.563 170.594C254.563 172.966 255.476 174.899 257.967 174.899C260.457 174.899 261.359 173.026 261.359 170.594V153.421H262.746V170.535C262.746 173.761 261.394 176.251 257.931 176.251C254.468 176.251 253.081 173.761 253.081 170.535V153.421H254.563V170.594Z" fill="#214F4B"/>
<path d="M266.661 176.062H265.309V153.421H267.242L274.038 172.539V153.421H275.401V176.062H273.741L266.625 155.9L266.661 176.062Z" fill="#214F4B"/>
<path d="M282.932 153.421C286.431 153.421 287.949 155.722 287.949 159.054V170.428C287.949 173.761 286.431 176.062 282.932 176.062H277.951V153.421H282.932ZM282.932 174.698C285.458 174.698 286.49 172.99 286.49 170.499V158.983C286.49 156.493 285.422 154.785 282.932 154.785H279.481V174.698H282.932Z" fill="#214F4B"/>
<path d="M358.172 385.604L374.313 347.498H383.979V385.604H388.166V393.657H383.979V403.892H375.274V393.657H358.172V385.604ZM375.25 385.604V364.422L366.308 385.604H375.25Z" fill="#214F4B"/>
<path d="M391.475 361.03C391.475 352.017 396.219 346.798 404.924 346.798C413.63 346.798 418.374 351.957 418.374 361.03V390.348C418.374 399.374 413.63 404.58 404.924 404.58C396.219 404.58 391.475 399.421 391.475 390.348V361.03ZM400.335 390.917C400.335 394.95 402.102 396.48 404.924 396.48C407.747 396.48 409.514 394.95 409.514 390.917V360.473C409.514 356.44 407.735 354.91 404.924 354.91C402.114 354.91 400.335 356.44 400.335 360.473V390.917Z" fill="#D9011D"/>
<path d="M422.003 385.604L438.109 347.498H447.775V385.604H451.961V393.657H447.775V403.892H439.069V393.657H422.003V385.604ZM439.069 385.604V364.422L430.139 385.604H439.069Z" fill="#214F4B"/>
</svg>
