<?xml version="1.0" encoding="UTF-8"?>
<svg width="150px" height="26px" viewBox="0 0 150 26" version="1.1" xmlns="http://www.w3.org/2000/svg" xmlns:xlink="http://www.w3.org/1999/xlink">
    <title>Group 16</title>
    <g id="Homepage" stroke="none" stroke-width="1" fill="none" fill-rule="evenodd">
        <g transform="translate(-200.000000, -70.000000)" fill="#FF4D00" id="Header">
            <g transform="translate(200.000000, 60.000000)">
                <g id="Group-16" transform="translate(0.000000, 10.000000)">
                    <path d="M16.4231205,2.27201671 C17.1775955,2.27201671 17.886784,2.56593079 18.4209129,3.10005967 C18.9541468,3.63311456 19.2478819,4.34212411 19.2478819,5.09659905 C19.2478819,5.85107399 18.9541468,6.56044153 18.4200179,7.09439141 C18.0117243,7.50268496 17.4928103,7.77261337 16.9193019,7.874642 C16.08571,8.02285203 15.4039081,8.62231504 15.1499105,9.42995227 C14.8959129,10.2374105 15.112142,11.1193317 15.71071,11.7178998 L18.4207339,14.4282816 C18.9541468,14.9613365 19.2478819,15.6705251 19.2478819,16.425179 C19.2478819,17.1796539 18.9541468,17.8890215 18.4203759,18.4226134 C17.886784,18.9562053 17.1774165,19.2501193 16.4231205,19.2501193 C15.6686456,19.2501193 14.959278,18.9562053 14.4256862,18.4226134 L12.3652446,16.3621718 C11.9215095,15.9186158 11.3401253,15.6968377 10.7587411,15.6968377 C10.1773568,15.6968377 9.59579356,15.9186158 9.15223747,16.3621718 L7.09125895,18.4227924 C6.55784606,18.9563842 5.84883652,19.2501193 5.09454057,19.2501193 C4.34006563,19.2501193 3.63069809,18.9562053 3.09692721,18.4226134 C2.5649463,17.8906325 2.27192721,17.1812649 2.27192721,16.425179 C2.27192721,15.6690931 2.5649463,14.9599045 3.09692721,14.4279236 L5.15718974,12.3678401 C5.58338305,11.9418258 5.82288186,11.3640215 5.82288186,10.7613365 C5.82288186,10.1588305 5.58356205,9.58084726 5.15754773,9.15483294 L3.09710621,7.09421241 C1.99591289,5.9926611 1.99591289,4.20053699 3.09692721,3.09934368 C3.63051909,2.56575179 4.33988663,2.27201671 5.09454057,2.27201671 C5.84901551,2.27201671 6.55820406,2.56593079 7.09197494,3.09970167 L9.80199881,5.80936754 C10.234636,6.24182578 10.8151253,6.47470167 11.4086814,6.47470167 C11.6363663,6.47470167 11.8661993,6.44033413 12.0901253,6.36998807 C12.8975835,6.11599045 13.4970465,5.43400955 13.6452566,4.60059666 C13.7474642,4.02690931 14.0173926,3.50763723 14.4255072,3.09934368 C14.959099,2.56575179 15.6684666,2.27201671 16.4231205,2.27201671 M16.4231205,0 C15.0614857,0 13.7816527,0.530190931 12.8190036,1.4926611 C12.0740155,2.23800716 11.588932,3.18830549 11.4085024,4.20250597 L8.69829952,1.49301909 C7.73582936,0.530190931 6.45581742,0 5.09454057,0 C3.73290573,0 2.45289379,0.530190931 1.49042363,1.4926611 C-0.496628878,3.4800716 -0.496628878,6.71330549 1.49042363,8.70053699 L3.55086516,10.7611575 L1.49042363,12.8212411 C-0.496807876,14.8084726 -0.496807876,18.0418854 1.49042363,20.0291169 C2.45289379,20.9917661 3.73290573,21.522136 5.09454057,21.522136 C6.45581742,21.522136 7.73582936,20.9917661 8.69794153,20.0291169 L10.7587411,17.9688544 L12.8190036,20.0291169 C13.7816527,20.9917661 15.0614857,21.522136 16.4231205,21.522136 C17.7847554,21.522136 19.0644093,20.9917661 20.0268795,20.0291169 C20.9897076,19.0666468 21.5198986,17.7866348 21.5198986,16.425179 C21.5198986,15.0635442 20.9897076,13.7837112 20.0268795,12.8212411 L17.3173926,10.1113962 C18.3315931,9.93096659 19.2820704,9.44570406 20.0268795,8.70053699 C20.9897076,7.73806683 21.5198986,6.45805489 21.5198986,5.09659905 C21.5198986,3.7351432 20.9897076,2.45531026 20.0268795,1.49301909 C19.0644093,0.530190931 17.7847554,0 16.4231205,0" id="Fill-12"></path>
                    <path d="M36.3632399,3.58713007 L25.4348986,3.58713007 C25.099815,3.58713007 24.8250537,3.68665274 24.6098986,3.88587709 C24.3945644,4.08563842 24.2868079,4.34446897 24.2868079,4.66326372 C24.2868079,4.99798926 24.3945644,5.2650537 24.6098986,5.46427804 C24.8250537,5.66386038 25.099815,5.76320406 25.4348986,5.76320406 L29.6672971,5.76320406 L29.6672971,19.1785382 C29.6672971,19.4976909 29.7831086,19.7688723 30.0141945,19.9917243 C30.2451014,20.2152924 30.5361516,20.3266289 30.8869869,20.3266289 C31.2376432,20.3266289 31.5285143,20.2152924 31.7599582,19.9917243 C31.9908652,19.7688723 32.1064976,19.4976909 32.1064976,19.1785382 L32.1064976,5.76320406 L36.3632399,5.76320406 C36.6979654,5.76320406 36.9730847,5.66761933 37.1882399,5.47609189 C37.403574,5.28492243 37.5109726,5.02197494 37.5109726,4.68689141 C37.5109726,4.35216587 37.403574,4.08563842 37.1882399,3.88587709 C36.9730847,3.68665274 36.6979654,3.58713007 36.3632399,3.58713007 M43.4943258,7.50896778 C42.6011277,7.52489857 41.8040513,7.77603222 41.1027387,8.26236874 C40.401068,8.74870525 39.874815,9.3823568 39.5245167,10.1631444 L39.5245167,8.94381265 C39.5245167,8.6250179 39.4167601,8.35419451 39.201605,8.13062649 C38.9862709,7.90741647 38.7113305,7.79590095 38.376605,7.79590095 C38.0574523,7.79590095 37.7905668,7.90741647 37.5754117,8.13062649 C37.3602566,8.35419451 37.2525,8.6250179 37.2525,8.94381265 L37.2525,19.1785382 C37.2525,19.5134427 37.3561396,19.7883831 37.5635979,20.0038962 C37.7705191,20.2192303 38.0417005,20.3266289 38.376605,20.3266289 C38.7113305,20.3266289 38.9862709,20.2152924 39.201605,19.9917243 C39.4167601,19.7688723 39.5245167,19.4976909 39.5245167,19.1785382 L39.5245167,13.415531 C39.5245167,12.6823568 39.6716527,12.0166647 39.9668198,11.4186337 C40.2616289,10.8209606 40.6441468,10.3509129 41.1147315,10.0077745 C41.5846002,9.66535203 42.0671778,9.49351432 42.5615692,9.49351432 C42.7527387,9.49351432 43.0158652,9.54989857 43.3507697,9.66123508 C43.6375239,9.75681981 43.852858,9.80461217 43.9964141,9.80461217 C44.2831683,9.80461217 44.526068,9.7052685 44.7254714,9.50568616 C44.9246957,9.30646181 45.0245764,9.01541169 45.0245764,8.6327148 C45.0245764,8.31409905 44.8729654,8.04685561 44.5704594,7.83170048 C44.2672375,7.61636635 43.9085263,7.50896778 43.4943258,7.50896778 M56.3692661,7.62835919 C56.0343616,7.62835919 55.7630012,7.7402327 55.55608,7.96308473 C55.3486217,8.18683174 55.2451611,8.46553103 55.2451611,8.80025656 L55.2451611,9.37430191 C54.8148508,8.83247613 54.2366885,8.38587709 53.5113902,8.03504177 C52.7857339,7.68456444 52.0006504,7.50896778 51.1557816,7.50896778 C50.1038126,7.50896778 49.1390155,7.78784606 48.2624642,8.34578162 C47.3855549,8.90425418 46.6958771,9.68128282 46.1937888,10.6774045 C45.6917005,11.6738842 45.4403878,12.7936933 45.4403878,14.0373687 C45.4403878,15.2810442 45.6917005,16.4008532 46.1937888,17.3973329 C46.6958771,18.3938126 47.3894928,19.1708413 48.274278,19.7285979 C49.1590632,20.2868914 50.1433711,20.5657697 51.2277387,20.5657697 C52.0563186,20.5657697 52.8299463,20.3704833 53.5471897,19.9799105 C54.2647912,19.5895167 54.8306026,19.115173 55.2451611,18.5572375 L55.2451611,19.1785382 C55.2451611,19.5134427 55.3486217,19.7883831 55.55608,20.0038962 C55.7630012,20.2192303 56.0343616,20.3266289 56.3692661,20.3266289 C56.7038126,20.3266289 56.979111,20.2152924 57.1942661,19.9917243 C57.4096002,19.7688723 57.5169988,19.4976909 57.5169988,19.1785382 L57.5169988,8.80025656 C57.5169988,8.44977924 57.4096002,8.16642601 57.1942661,7.95127088 C56.979111,7.73611575 56.7038126,7.62835919 56.3692661,7.62835919 M51.4906862,18.4612947 C50.7410442,18.4612947 50.07571,18.2701253 49.4939678,17.8872494 C48.9118675,17.5049105 48.4575716,16.9788365 48.130901,16.3092064 C47.8038723,15.6395764 47.6404475,14.8825955 47.6404475,14.0373687 C47.6404475,13.1925 47.8038723,12.4353401 48.130901,11.765352 C48.4575716,11.09608 48.9118675,10.570006 49.4939678,10.1871301 C50.07571,9.80461217 50.7410442,9.61326372 51.4906862,9.61326372 C52.2399702,9.61326372 52.9054833,9.80855012 53.4875835,10.1993019 C54.0693258,10.5900537 54.5234427,11.1197076 54.8506504,11.7895167 C55.177142,12.4589678 55.3409248,13.2084308 55.3409248,14.0373687 C55.3409248,14.8825955 55.177142,15.6395764 54.8506504,16.3092064 C54.5234427,16.9788365 54.0693258,17.5049105 53.4875835,17.8872494 C52.9054833,18.2701253 52.2399702,18.4612947 51.4906862,18.4612947 M69.6890155,7.67633055 C69.2266647,7.67633055 68.8837053,7.91547136 68.6604952,8.39357399 L65.0497554,16.7874881 L61.4388365,8.39357399 C61.326963,8.15461217 61.17571,7.97525656 60.9843616,7.85568616 C60.7931921,7.73611575 60.578037,7.67633055 60.3387172,7.67633055 C60.0039916,7.67633055 59.7326313,7.78014916 59.525531,7.98707041 C59.3184308,8.19452864 59.2147912,8.42579356 59.2147912,8.68068616 C59.2147912,8.84017303 59.2543496,9.03921838 59.3343616,9.27835919 L63.877858,19.6093854 C63.9891945,19.864457 64.1527983,20.0558055 64.3681325,20.1830728 C64.5832876,20.3108771 64.8183115,20.3583115 65.0737411,20.3266289 C65.2808413,20.3108771 65.4720107,20.239278 65.6476074,20.1114737 C65.8228461,19.9840274 65.9583473,19.8164857 66.05429,19.6093854 L70.5977864,9.27835919 C70.7091229,9.02346659 70.7653282,8.82388425 70.7653282,8.68068616 C70.7653282,8.40986277 70.6615095,8.1746599 70.4542303,7.97525656 C70.2469511,7.77603222 69.9915215,7.67633055 69.6890155,7.67633055 M82.3368079,7.62835919 C82.0017243,7.62835919 81.730543,7.7402327 81.5236217,7.96308473 C81.3161635,8.18683174 81.2128819,8.46553103 81.2128819,8.80025656 L81.2128819,9.37430191 C80.7823926,8.83247613 80.2042303,8.38587709 79.478932,8.03504177 C78.7534547,7.68456444 77.9683711,7.50896778 77.1235024,7.50896778 C76.0713544,7.50896778 75.1065573,7.78784606 74.230006,8.34578162 C73.3529177,8.90425418 72.6637768,9.68128282 72.1616885,10.6774045 C71.6592422,11.6738842 71.4082876,12.7936933 71.4082876,14.0373687 C71.4082876,15.2810442 71.6592422,16.4008532 72.1616885,17.3973329 C72.6637768,18.3938126 73.3570346,19.1708413 74.2418198,19.7285979 C75.126784,20.2868914 76.1110919,20.5657697 77.1954594,20.5657697 C78.0240394,20.5657697 78.7974881,20.3704833 79.5147315,19.9799105 C80.2323329,19.5895167 80.7981444,19.115173 81.2128819,18.5572375 L81.2128819,19.1785382 C81.2128819,19.5134427 81.3161635,19.7883831 81.5236217,20.0038962 C81.730543,20.2192303 82.0017243,20.3266289 82.3368079,20.3266289 C82.6717124,20.3266289 82.9464737,20.2152924 83.1616289,19.9917243 C83.376784,19.7688723 83.4845406,19.4976909 83.4845406,19.1785382 L83.4845406,8.80025656 C83.4845406,8.44977924 83.376784,8.16642601 83.1616289,7.95127088 C82.9464737,7.73611575 82.6717124,7.62835919 82.3368079,7.62835919 M77.4582279,18.4612947 C76.7087649,18.4612947 76.0432518,18.2701253 75.4615095,17.8872494 C74.8792303,17.5049105 74.4251134,16.9788365 74.0986217,16.3092064 C73.7714141,15.6395764 73.6083473,14.8825955 73.6083473,14.0373687 C73.6083473,13.1925 73.7714141,12.4353401 74.0986217,11.765352 C74.4251134,11.09608 74.8792303,10.570006 75.4615095,10.1871301 C76.0432518,9.80461217 76.7087649,9.61326372 77.4582279,9.61326372 C78.2075119,9.61326372 78.8730251,9.80855012 79.4549463,10.1993019 C80.0370465,10.5900537 80.4913425,11.1197076 80.8181921,11.7895167 C81.1448628,12.4589678 81.3084666,13.2084308 81.3084666,14.0373687 C81.3084666,14.8825955 81.1448628,15.6395764 80.8181921,16.3092064 C80.4913425,16.9788365 80.0370465,17.5049105 79.4549463,17.8872494 C78.8730251,18.2701253 78.2075119,18.4612947 77.4582279,18.4612947 M100.719326,7.58056683 C99.8103759,7.58056683 98.9495764,7.85174821 98.1363902,8.39357399 C97.3235621,8.93593675 96.7412828,9.54148568 96.3909845,10.2111158 C95.8010084,8.45783413 94.5174165,7.58056683 92.5407458,7.58056683 C91.7275597,7.58056683 90.9741587,7.792321 90.280901,8.21439737 C89.5872852,8.63718974 89.0332876,9.15896778 88.6189081,9.78080549 L88.6189081,8.94381265 C88.6189081,8.6250179 88.5111516,8.35419451 88.2959964,8.13062649 C88.0806623,7.90741647 87.805722,7.79590095 87.4708174,7.79590095 C87.1520227,7.79590095 86.8851372,7.90741647 86.6698031,8.13062649 C86.454648,8.35419451 86.3472494,8.6250179 86.3472494,8.94381265 L86.3472494,19.1785382 C86.3472494,19.5134427 86.450531,19.7883831 86.6578103,20.0038962 C86.8649105,20.2192303 87.1360919,20.3266289 87.4708174,20.3266289 C87.805722,20.3266289 88.0806623,20.2152924 88.2959964,19.9917243 C88.5111516,19.7688723 88.6189081,19.4976909 88.6189081,19.1785382 L88.6189081,12.7936933 C88.6189081,11.917142 88.92571,11.1798508 89.5394928,10.5818198 C90.1529177,9.98414678 90.9303043,9.68504177 91.8711158,9.68504177 C92.7956384,9.68504177 93.4573926,9.96803699 93.8558413,10.5342064 C94.25429,11.0998389 94.4536933,11.8532399 94.4536933,12.7936933 L94.4536933,19.1785382 C94.4536933,19.5134427 94.5571539,19.7883831 94.7646122,20.0038962 C94.9715334,20.2192303 95.2428938,20.3266289 95.5777983,20.3266289 C95.9125239,20.3266289 96.1876432,20.2152924 96.4027983,19.9917243 C96.6181325,19.7688723 96.725531,19.4976909 96.725531,19.1785382 L96.725531,12.817679 C96.725531,12.2438126 96.8649702,11.7177387 97.1440274,11.239278 C97.4227267,10.7611754 97.8136575,10.3825955 98.3157458,10.1037172 C98.8178341,9.8248389 99.3800656,9.68504177 100.001724,9.68504177 C101.755185,9.68504177 102.632273,10.7294928 102.632273,12.817679 L102.632273,19.1785382 C102.632273,19.4976909 102.74003,19.7688723 102.955185,19.9917243 C103.17034,20.2152924 103.445459,20.3266289 103.780185,20.3266289 C104.114732,20.3266289 104.385734,20.2192303 104.593192,20.0038962 C104.800113,19.7883831 104.903932,19.5134427 104.903932,19.1785382 L104.903932,12.7936933 C104.903932,9.31863365 103.508825,7.58056683 100.719326,7.58056683 M109.942715,19.1792542 L109.942715,8.82334726 C109.942715,8.5047315 109.834958,8.23390811 109.619803,8.0103401 C109.404469,7.78713007 109.129529,7.67543556 108.794803,7.67543556 C108.47565,7.67543556 108.209123,7.78713007 107.993968,8.0103401 C107.778634,8.23390811 107.670877,8.5047315 107.670877,8.82334726 L107.670877,19.1792542 C107.670877,19.4984069 107.778634,19.7695883 107.993968,19.9924403 C108.209123,20.2160084 108.47565,20.3273449 108.794803,20.3273449 C109.129529,20.3273449 109.404469,20.2160084 109.619803,19.9924403 C109.834958,19.7695883 109.942715,19.4984069 109.942715,19.1792542 M108.794803,6.09810859 C109.240865,6.09810859 109.567894,6.01845465 109.775173,5.85896778 C109.982452,5.6996599 110.086271,5.42847852 110.086271,5.04560263 L110.086271,4.66326372 C110.086271,4.29649761 109.986569,4.02943317 109.787345,3.86207041 C109.587763,3.69452864 109.264851,3.61075776 108.818968,3.61075776 C108.372369,3.61075776 108.041581,3.69094869 107.826426,3.85007757 C107.611092,4.00956444 107.503335,4.28038783 107.503335,4.66326372 L107.503335,5.04560263 C107.503335,5.41272673 107.602858,5.67943317 107.80244,5.84697494 C108.001665,6.01433771 108.332273,6.09810859 108.794803,6.09810859 M123.274278,7.62835919 C122.939732,7.62835919 122.668371,7.7402327 122.461271,7.96308473 C122.253813,8.18683174 122.150531,8.46553103 122.150531,8.80025656 L122.150531,9.56547136 C121.720042,8.99160501 121.12577,8.50544749 120.368789,8.10664081 C119.61145,7.70855012 118.794147,7.50896778 117.917595,7.50896778 C116.833407,7.50896778 115.840865,7.78784606 114.940328,8.34578162 C114.039612,8.90425418 113.329887,9.68128282 112.811868,10.6774045 C112.293848,11.6738842 112.035018,12.7936933 112.035018,14.0373687 C112.035018,15.2810442 112.293848,16.4008532 112.811868,17.3973329 C113.329887,18.3938126 114.043729,19.1708413 114.9525,19.7285979 C115.861092,20.2868914 116.865447,20.5657697 117.965567,20.5657697 C118.842118,20.5657697 119.675352,20.3423807 120.464553,19.8961396 C121.253753,19.4500776 121.815805,18.9157697 122.150531,18.294111 L122.150531,19.5853998 C122.150531,20.6531205 121.81151,21.4944093 121.134004,22.1081921 C120.456319,22.7217959 119.480066,23.0287768 118.204708,23.0287768 C117.487106,23.0287768 116.490626,22.7814021 115.215447,22.2875477 C114.976128,22.191963 114.752739,22.1439916 114.545817,22.1439916 C114.131259,22.1439916 113.836092,22.343216 113.661211,22.7420227 C113.597309,22.9011516 113.565268,23.0287768 113.565268,23.1247196 C113.565268,23.5072375 113.812464,23.8260322 114.306856,24.0811038 C114.545817,24.3200656 115.091581,24.5509726 115.944863,24.7745406 C116.797607,24.9977506 117.542774,25.1092661 118.180722,25.1092661 C119.360316,25.1092661 120.420519,24.9021659 121.361331,24.4876074 C122.301784,24.0728699 123.04713,23.4313425 123.59719,22.5624881 C124.147249,21.6934547 124.422369,20.6137411 124.422369,19.3222733 L124.422369,8.80025656 C124.422369,8.44977924 124.314433,8.16642601 124.099278,7.95127088 C123.884123,7.73611575 123.609004,7.62835919 123.274278,7.62835919 M118.228693,18.4612947 C117.463479,18.4612947 116.777918,18.2701253 116.17219,17.8872494 C115.565925,17.5049105 115.091581,16.9748986 114.749159,16.2970346 C114.40602,15.6198866 114.235257,14.8666647 114.235257,14.0373687 C114.235257,13.2084308 114.40602,12.4553878 114.749159,11.7775239 C115.091581,11.0998389 115.565925,10.570006 116.17219,10.1871301 C116.777918,9.80461217 117.463479,9.61326372 118.228693,9.61326372 C119.009302,9.61326372 119.702918,9.80461217 120.309183,10.1871301 C120.914911,10.570006 121.388896,11.09608 121.732035,11.765352 C122.074457,12.4353401 122.246116,13.1925 122.246116,14.0373687 C122.246116,14.8825955 122.074457,15.6436933 121.732035,16.3211993 C121.388896,16.9988842 120.914911,17.5249582 120.309183,17.8994212 C119.702918,18.2742422 119.009302,18.4612947 118.228693,18.4612947 M139.20077,14.0613544 C139.20077,12.817679 138.921712,11.693753 138.363956,10.6892184 C137.805662,9.68504177 137.044564,8.90425418 136.080304,8.34578162 C135.115507,7.78784606 134.051187,7.50896778 132.887703,7.50896778 C131.723681,7.50896778 130.65972,7.78784606 129.69528,8.34578162 C128.730483,8.90425418 127.969385,9.68504177 127.411629,10.6892184 C126.852977,11.693753 126.574457,12.817679 126.574457,14.0613544 C126.574457,15.3046718 126.852977,16.420722 127.411629,17.4091468 C127.969385,18.3979296 128.730483,19.1708413 129.69528,19.7285979 C130.65972,20.2868914 131.723681,20.5657697 132.887703,20.5657697 C134.051187,20.5657697 135.115507,20.2868914 136.080304,19.7285979 C137.044564,19.1708413 137.805662,18.3979296 138.363956,17.4091468 C138.921712,16.420722 139.20077,15.3046718 139.20077,14.0613544 M136.929111,14.0613544 C136.929111,14.9065811 136.749755,15.6635621 136.390865,16.3331921 C136.032333,17.0028222 135.545996,17.5249582 134.932393,17.8994212 C134.318431,18.2742422 133.636987,18.4612947 132.887703,18.4612947 C132.138061,18.4612947 131.456617,18.2742422 130.843013,17.8994212 C130.22923,17.5249582 129.743252,17.0028222 129.384362,16.3331921 C129.02565,15.6635621 128.846295,14.9065811 128.846295,14.0613544 C128.846295,13.2001969 129.02565,12.4314021 129.384362,11.7537172 C129.743252,11.0762112 130.22923,10.5501372 130.843013,10.1753162 C131.456617,9.80085322 132.138061,9.61326372 132.887703,9.61326372 C133.636987,9.61326372 134.318431,9.80085322 134.932393,10.1753162 C135.545996,10.5501372 136.032333,11.0762112 136.390865,11.7537172 C136.749755,12.4314021 136.929111,13.2001969 136.929111,14.0613544 M140.506199,18.36571 C141.095817,19.1309248 141.817357,19.6892184 142.670459,20.0396957 C143.523025,20.390352 144.452023,20.5657697 145.456378,20.5657697 C146.237345,20.5657697 146.974815,20.4180967 147.668431,20.1232876 C148.362047,19.8286575 148.92392,19.4058652 149.35423,18.8559845 C149.78472,18.3059248 149.999875,17.6567005 149.999875,16.9070585 C149.999875,16.0938723 149.808705,15.4362351 149.426008,14.9341468 C149.04349,14.4317005 148.573085,14.0532995 148.01497,13.7982279 C147.457035,13.5433353 146.755722,13.3041945 145.910853,13.0809845 C144.938001,12.8260919 144.216641,12.5627864 143.746593,12.291605 C143.276187,12.0207816 143.032751,11.6064021 143.017178,11.0481086 C143.017178,10.4586695 143.228574,10.039994 143.651008,9.79261933 C144.073085,9.54560263 144.587345,9.42191527 145.19361,9.42191527 C145.783049,9.42191527 146.320937,9.52573389 146.807452,9.73283413 C147.29361,9.94029236 147.70423,10.2351014 148.039135,10.6176193 C148.214374,10.8087888 148.445459,10.9045525 148.732572,10.9045525 C148.971712,10.9045525 149.171116,10.8327745 149.330603,10.6892184 C149.585137,10.4504356 149.713121,10.2032399 149.713121,9.94798926 C149.713121,9.70884845 149.617536,9.47812053 149.426008,9.2547315 C148.947906,8.66493437 148.330006,8.22621122 147.572846,7.93945704 C146.815328,7.65252387 146.054409,7.50896778 145.288837,7.50896778 C144.49176,7.50896778 143.75429,7.66057876 143.076963,7.96308473 C142.399278,8.26630668 141.857273,8.68892005 141.45077,9.23074582 C141.044266,9.7727506 140.840925,10.4024642 140.840925,11.1197076 C140.840925,11.9328938 141.044266,12.590352 141.45077,13.0927983 C141.857273,13.5948866 142.355603,13.9775835 142.945579,14.24071 C143.535197,14.5036575 144.276426,14.7546122 145.169266,14.993932 C146.078037,15.2330728 146.767536,15.4961993 147.237942,15.7831325 C147.708168,16.0698866 147.943371,16.4846241 147.943371,17.0264499 C147.943371,17.616426 147.712285,18.0429773 147.250113,18.3059248 C146.787405,18.5686933 146.253276,18.7088484 145.647727,18.7244212 C144.882512,18.7244212 144.224875,18.589099 143.674994,18.3177387 C143.124934,18.0469153 142.610674,17.6404117 142.132572,17.0984069 C141.893073,16.8590871 141.630304,16.7395167 141.343371,16.7395167 C141.135913,16.7395167 140.952261,16.795543 140.793311,16.9070585 C140.458586,17.1302685 140.291044,17.4012709 140.291044,17.7200656 C140.291044,17.9275239 140.362822,18.142679 140.506199,18.36571" id="Fill-14"></path>
                </g>
            </g>
        </g>
    </g>
</svg>