<svg width="105" height="39" viewBox="0 0 105 39" fill="none" xmlns="http://www.w3.org/2000/svg">
<path fill-rule="evenodd" clip-rule="evenodd" d="M17.1105 26.0003C9.45147 24.3296 5.1966 22.1364 4.34896 19.4225C3.48845 16.721 6.06248 14.0185 12.0726 11.3154C4.02427 14.1599 0.100865 17.1057 0.301248 20.1518C0.512265 23.1864 4.81973 25.6337 13.2216 27.4932C18.9611 28.6435 25.4365 29.2543 32.6497 29.3254C39.8735 29.3963 47.0616 28.9699 54.2154 28.0447C61.3674 27.1086 67.7254 25.7279 73.2883 23.9032C74.7852 23.4043 76.1399 22.8892 77.3539 22.3558C77.2945 22.3793 77.2352 22.3975 77.1772 22.4099C71.6143 24.246 65.2563 25.6265 58.1043 26.5518C50.9381 27.4766 43.7501 27.9086 36.5386 27.8487C29.3254 27.7781 22.85 27.1615 17.1105 26.0003Z" fill="#87BD66"/>
<path fill-rule="evenodd" clip-rule="evenodd" d="M87.1825 2.51545C79.3217 0.939276 70.4419 0.104431 60.5429 0.00985336C50.6563 -0.0857906 40.81 0.501585 31.0046 1.76985C21.1888 3.03776 12.4746 4.9226 4.86111 7.42247C3.09343 8.02649 1.47352 8.63776 0 9.2543C0.317491 9.13483 0.642027 9.02247 0.972222 8.91538C8.58568 6.41554 17.2999 4.52541 27.1157 3.2447C36.9211 1.97679 46.7731 1.39048 56.6721 1.48505C66.5587 1.57928 75.4328 2.41554 83.2936 3.99208C93.9107 6.31414 99.744 9.36704 100.794 13.1476C101.854 16.9279 98.088 20.6851 89.4968 24.4185C100.139 20.5432 105.253 16.5489 104.841 12.4365C104.428 8.32388 98.5423 5.01679 87.1825 2.51545Z" fill="#87BD66"/>
<path d="M39.1322 17.0743H34.6798L34.0664 19.1743H30.0671L34.8233 6.44639L39.0876 6.44639L43.8441 19.1743H39.7509L39.1322 17.0743ZM38.3088 14.3242L36.9113 9.7464L35.5247 14.3242H38.3088ZM42.869 6.44639H46.9566L49.8072 15.6076L52.6132 6.44639H56.5852L51.8895 19.1743H47.6471L42.869 6.44639Z" fill="white"/>
<path d="M57.1787 14.9628L60.8965 14.7296C60.9767 15.338 61.1408 15.8005 61.3883 16.1184C61.7927 16.6335 62.3686 16.8906 63.117 16.8906C63.6763 16.8906 64.1073 16.7602 64.4099 16.4963C64.7108 16.2335 64.8628 15.9281 64.8628 15.5794C64.8628 15.2505 64.7164 14.9557 64.4262 14.6962C64.1391 14.4338 63.472 14.1877 62.4266 13.9573C60.7102 13.5684 59.488 13.0545 58.7587 12.4128C58.0212 11.7685 57.6539 10.9503 57.6539 9.95727C57.6539 9.30174 57.8416 8.68367 58.2174 8.10174C58.5957 7.52104 59.1635 7.0627 59.9186 6.72965C60.6769 6.39603 61.7139 6.22963 63.0287 6.22963C64.6447 6.22963 65.8764 6.53366 66.7242 7.1406C67.5751 7.74465 68.0803 8.70575 68.2433 10.0238L64.5588 10.2408C64.4594 9.66714 64.2522 9.25047 63.9401 8.99063C63.6268 8.73242 63.1945 8.60158 62.6422 8.60158C62.189 8.60158 61.8468 8.70046 61.6145 8.8963C61.3854 9.08908 61.2719 9.32406 61.2719 9.60172C61.2719 9.80157 61.366 9.98366 61.5537 10.1462C61.7375 10.3128 62.1752 10.4682 62.8685 10.613C64.5768 10.9838 65.799 11.3599 66.5364 11.7407C67.2767 12.1184 67.8138 12.5891 68.1496 13.1516C68.488 13.7113 68.6576 14.3392 68.6576 15.0351C68.6576 15.8503 68.4324 16.6016 67.9838 17.2906C67.5334 17.9794 66.9066 18.5017 66.1002 18.8573C65.2962 19.2128 64.2827 19.3906 63.0562 19.3906C60.9046 19.3906 59.4159 18.9738 58.5875 18.1407C57.7589 17.3074 57.2894 16.2488 57.1787 14.9628Z" fill="white"/>
<path d="M26.3219 36.8574H24.9851L24.8027 37.4853H23.6042L25.0293 33.6683H26.3109L27.7361 37.4853H26.5096L26.3219 36.8574ZM26.079 36.0296L25.659 34.6575L25.2393 36.0296H26.079ZM29.3118 33.6683V34.7186H29.8919V35.4906H29.3118V36.474C29.3118 36.5935 29.3227 36.6714 29.3449 36.7072C29.3782 36.7669 29.439 36.7961 29.5273 36.7961C29.6044 36.7961 29.7123 36.7742 29.853 36.7297L29.9305 37.4628C29.6681 37.5186 29.4249 37.5464 29.2014 37.5464C28.9363 37.5464 28.7401 37.5129 28.6156 37.4461C28.4943 37.3796 28.4031 37.2783 28.3452 37.1407C28.2857 37.0003 28.2568 36.7769 28.2568 36.4683V35.4906H27.8643V34.7186H28.2568V34.213L29.3118 33.6683Z" fill="white"/>
<path d="M30.4248 37.4849H31.4797V33.6683H30.4248V37.4849Z" fill="white"/>
<path d="M33.1245 35.6129L32.1137 35.5072C32.1536 35.3294 32.2089 35.1908 32.2796 35.0905C32.3485 34.9907 32.4521 34.9018 32.5889 34.8239C32.6839 34.7726 32.8165 34.7325 32.9866 34.7019C33.1549 34.6728 33.3402 34.6575 33.5389 34.6575C33.851 34.6575 34.1037 34.6767 34.2957 34.7129C34.4863 34.7464 34.6465 34.8214 34.7763 34.9351C34.8647 35.013 34.9336 35.124 34.9862 35.2683C35.0414 35.4101 35.0689 35.545 35.0689 35.674V36.8964C35.0689 37.0269 35.0759 37.1282 35.0911 37.2018C35.1092 37.2768 35.1464 37.3711 35.2015 37.4853H34.2073C34.1699 37.4156 34.1438 37.3615 34.13 37.3242C34.1189 37.2879 34.108 37.2282 34.0967 37.1464C33.956 37.2797 33.8177 37.3768 33.6824 37.4351C33.4975 37.5086 33.2822 37.5464 33.0361 37.5464C32.7077 37.5464 32.4577 37.4714 32.2848 37.3185C32.1151 37.1669 32.031 36.9782 32.031 36.7517C32.031 36.5447 32.0929 36.3726 32.2187 36.2351C32.3403 36.0989 32.5638 35.999 32.8926 35.935C33.2903 35.8546 33.5459 35.7992 33.6604 35.7686C33.7778 35.7351 33.9033 35.6936 34.0359 35.6406C34.0359 35.5072 34.0083 35.4156 33.9532 35.3629C33.9009 35.3114 33.8068 35.285 33.6715 35.285C33.5017 35.285 33.373 35.3128 33.2846 35.3686C33.2185 35.4131 33.1648 35.4949 33.1245 35.6129ZM34.0359 36.1739C33.8924 36.2269 33.7407 36.2728 33.5831 36.3129C33.3692 36.3685 33.2323 36.4239 33.1743 36.4797C33.1149 36.5394 33.0859 36.6044 33.0859 36.6742C33.0859 36.7603 33.1149 36.8282 33.1743 36.8797C33.2323 36.9324 33.3179 36.9572 33.4286 36.9572C33.5459 36.9572 33.6548 36.9294 33.7545 36.874C33.8567 36.8157 33.9285 36.745 33.9698 36.6628C34.0139 36.5825 34.0359 36.474 34.0359 36.3407V36.1739Z" fill="white"/>
<path d="M35.5178 36.7187L36.5618 36.6184C36.606 36.7451 36.6668 36.8354 36.7442 36.8908C36.8213 36.9434 36.9235 36.9687 37.0536 36.9687C37.1971 36.9687 37.3074 36.9395 37.3848 36.8798C37.4428 36.8354 37.4732 36.7784 37.4732 36.7073C37.4732 36.6337 37.4347 36.574 37.3573 36.5295C37.2979 36.5004 37.1473 36.4659 36.9044 36.424C36.5357 36.3575 36.28 36.2991 36.1365 36.2462C35.9954 36.1908 35.8767 36.099 35.7773 35.9686C35.6808 35.8394 35.6338 35.6908 35.6338 35.5241C35.6338 35.3395 35.685 35.1823 35.7883 35.0519C35.8947 34.9186 36.0396 34.8215 36.2249 34.7575C36.4126 34.6906 36.6612 34.6576 36.9705 34.6576C37.2979 34.6576 37.5397 34.6839 37.6942 34.7351C37.8515 34.7838 37.983 34.8616 38.0863 34.9687C38.1927 35.0729 38.2796 35.2158 38.3461 35.3965L37.3463 35.4963C37.3198 35.4075 37.277 35.3434 37.219 35.3019C37.1335 35.2463 37.0341 35.2187 36.921 35.2187C36.7994 35.2187 36.711 35.2406 36.6559 35.2851C36.6032 35.3268 36.5784 35.3769 36.5784 35.4352C36.5784 35.502 36.6117 35.5547 36.6778 35.5909C36.7467 35.624 36.8987 35.6559 37.1306 35.6851C37.4803 35.7229 37.7398 35.7783 37.9095 35.8519C38.0824 35.9226 38.2135 36.024 38.3019 36.1573C38.3931 36.2881 38.4398 36.4325 38.4398 36.5908C38.4398 36.7504 38.3917 36.9061 38.2963 37.0576C38.1997 37.2062 38.0491 37.3268 37.8434 37.4184C37.6362 37.5073 37.3573 37.5518 37.0037 37.5518C36.4982 37.5518 36.1393 37.4797 35.9265 37.3352C35.7126 37.1909 35.5758 36.9854 35.5178 36.7187Z" fill="white"/>
<path d="M40.4094 33.6684H41.6411L42.4917 36.413L43.3371 33.6684H44.5246L43.1161 37.4854H41.8455L40.4094 33.6684Z" fill="white"/>
<path d="M44.439 36.1075C44.439 35.6893 44.58 35.3433 44.8643 35.0685C45.1474 34.7947 45.53 34.6575 46.0133 34.6575C46.5616 34.6575 46.9773 34.8186 47.2619 35.1407C47.4854 35.3964 47.5989 35.7156 47.5989 36.0964C47.5989 36.5228 47.4578 36.8711 47.1789 37.1407C46.8985 37.4117 46.5107 37.5464 46.0133 37.5464C45.5713 37.5464 45.2139 37.4336 44.9417 37.2075C44.6062 36.9294 44.439 36.5629 44.439 36.1075ZM45.4943 36.1075C45.4943 36.356 45.5438 36.5394 45.6431 36.6575C45.7428 36.7726 45.8669 36.8296 46.0189 36.8296C46.1695 36.8296 46.2922 36.7726 46.3891 36.6575C46.4884 36.5433 46.5383 36.356 46.5383 36.0964C46.5383 35.8561 46.4884 35.6783 46.3891 35.5631C46.2922 35.445 46.1734 35.3853 46.0299 35.3853C45.8754 35.3853 45.7456 35.445 45.6431 35.5631C45.5438 35.6822 45.4943 35.8628 45.4943 36.1075Z" fill="white"/>
<path d="M47.7163 34.7187H48.8321L49.4009 36.563L49.9259 34.7187H50.9642L49.8704 37.6741C49.7491 38.0101 49.6219 38.238 49.4893 38.3574C49.3086 38.5242 49.0311 38.6074 48.6553 38.6074C48.5033 38.6074 48.2699 38.5864 47.9539 38.5463L47.8708 37.8074C48.0214 37.8546 48.1886 37.8796 48.3735 37.8796C48.498 37.8796 48.6001 37.849 48.6776 37.7908C48.7546 37.7352 48.8183 37.6324 48.8706 37.4853L47.7163 34.7187Z" fill="white"/>
<path d="M52.1356 35.6129L51.1245 35.5072C51.1648 35.3294 51.2199 35.1908 51.2903 35.0905C51.3592 34.9907 51.4628 34.9018 51.5996 34.8239C51.6951 34.7726 51.8277 34.7325 51.9974 34.7019C52.166 34.6728 52.3509 34.6575 52.5499 34.6575C52.8617 34.6575 53.1145 34.6767 53.3065 34.7129C53.4971 34.7464 53.6572 34.8214 53.7873 34.9351C53.8757 35.013 53.9446 35.124 53.9969 35.2683C54.0525 35.4101 54.08 35.545 54.08 35.674V36.8964C54.08 37.0269 54.0867 37.1282 54.1019 37.2018C54.12 37.2768 54.1575 37.3711 54.2126 37.4853H53.2181C53.181 37.4156 53.1548 37.3615 53.1407 37.3242C53.1297 37.2879 53.1188 37.2282 53.1078 37.1464C52.9667 37.2797 52.8289 37.3768 52.6935 37.4351C52.5082 37.5086 52.2929 37.5464 52.0472 37.5464C51.7184 37.5464 51.4685 37.4714 51.2959 37.3185C51.1259 37.1669 51.0417 36.9782 51.0417 36.7517C51.0417 36.5447 51.104 36.3726 51.2295 36.2351C51.3511 36.0989 51.5749 35.999 51.9033 35.935C52.3014 35.8546 52.5566 35.7992 52.6712 35.7686C52.7886 35.7351 52.9144 35.6936 53.047 35.6406C53.047 35.5072 53.0194 35.4156 52.9639 35.3629C52.9116 35.3114 52.8176 35.285 52.6825 35.285C52.5125 35.285 52.3841 35.3128 52.2957 35.3686C52.2293 35.4131 52.1755 35.4949 52.1356 35.6129ZM53.047 36.1739C52.9035 36.2269 52.7514 36.2728 52.5941 36.3129C52.3799 36.3685 52.2431 36.4239 52.1851 36.4797C52.1257 36.5394 52.0967 36.6044 52.0967 36.6742C52.0967 36.7603 52.1257 36.8282 52.1851 36.8797C52.2431 36.9324 52.329 36.9572 52.4393 36.9572C52.5566 36.9572 52.6659 36.9294 52.7652 36.874C52.8674 36.8157 52.9392 36.745 52.9805 36.6628C53.0247 36.5825 53.047 36.474 53.047 36.3407V36.1739Z" fill="white"/>
<path d="M56.7162 34.7187H57.705V37.4519C57.705 37.6253 57.6675 37.7908 57.5943 37.9465C57.5197 38.1046 57.4232 38.2323 57.3016 38.3298C57.18 38.4296 57.0255 38.4989 56.8378 38.5409C56.6497 38.5853 56.4358 38.6074 56.1968 38.6074C55.6446 38.6074 55.2645 38.5242 55.0588 38.3574C54.8516 38.1908 54.7494 37.9685 54.7494 37.6908C54.7494 37.6531 54.7509 37.6048 54.7551 37.5465L55.7772 37.6631C55.8019 37.7587 55.8404 37.8255 55.8931 37.8628C55.973 37.9187 56.0713 37.9465 56.1858 37.9465C56.3403 37.9465 56.4538 37.9034 56.5284 37.8184C56.6016 37.7366 56.6387 37.5962 56.6387 37.3964V36.9739C56.5351 37.0963 56.4316 37.1852 56.3294 37.2406C56.1664 37.3295 55.9925 37.3739 55.8047 37.3739C55.436 37.3739 55.139 37.213 54.9152 36.8908C54.7523 36.6614 54.6724 36.3574 54.6724 35.9795C54.6724 35.5503 54.7745 35.2226 54.9817 34.9965C55.1914 34.7713 55.4636 34.6575 55.7991 34.6575C56.0119 34.6575 56.1873 34.6949 56.3237 34.7685C56.4634 34.8392 56.5945 34.9601 56.7162 35.1298V34.7187ZM55.7273 36.0631C55.7273 36.2601 55.7673 36.4076 55.8489 36.5076C55.9331 36.6045 56.0448 36.6519 56.1858 36.6519C56.3184 36.6519 56.4287 36.6017 56.5171 36.5019C56.6055 36.4019 56.6497 36.2505 56.6497 36.0463C56.6497 35.8462 56.6016 35.6937 56.5062 35.5852C56.4135 35.4781 56.3018 35.4241 56.1692 35.4241C56.0324 35.4241 55.9235 35.4742 55.8433 35.5742C55.7658 35.6712 55.7273 35.8337 55.7273 36.0631Z" fill="white"/>
<path d="M61.3964 36.3631H59.2862C59.3042 36.5337 59.3498 36.6614 59.4244 36.7464C59.5237 36.8658 59.6563 36.9242 59.8221 36.9242C59.9243 36.9242 60.0222 36.8989 60.1149 36.8462C60.1728 36.8129 60.2365 36.756 60.3026 36.6742L61.3413 36.7685C61.1783 37.0461 60.9849 37.2462 60.7611 37.3686C60.5402 37.4867 60.2199 37.5464 59.7999 37.5464C59.4354 37.5464 59.1483 37.4933 58.9383 37.3907C58.7283 37.2879 58.5543 37.124 58.4189 36.9018C58.2821 36.6767 58.2146 36.4114 58.2146 36.1075C58.2146 35.674 58.35 35.3242 58.6233 35.0575C58.8998 34.7908 59.2809 34.6575 59.767 34.6575C60.1605 34.6575 60.4712 34.7186 60.7003 34.8406C60.9283 34.96 61.1009 35.1325 61.2197 35.3572C61.337 35.5837 61.3964 35.8796 61.3964 36.2461V36.3631ZM60.3249 35.8575C60.3054 35.6544 60.2503 35.5072 60.159 35.4183C60.0707 35.3294 59.9547 35.285 59.8112 35.285C59.6454 35.285 59.51 35.3519 59.4078 35.4853C59.3441 35.5669 59.3042 35.6907 59.2862 35.8575H60.3249Z" fill="white"/>
<path d="M63.5217 36.2241L64.6375 36.152C64.6622 36.334 64.7121 36.4727 64.7867 36.5687C64.9083 36.7241 65.0808 36.8019 65.306 36.8019C65.4715 36.8019 65.5987 36.7631 65.6871 36.6854C65.7783 36.6045 65.825 36.5118 65.825 36.4076C65.825 36.3073 65.7822 36.2184 65.6981 36.1409C65.6125 36.0631 65.4121 35.9895 65.096 35.9187C64.5837 35.8045 64.2178 35.6506 63.9969 35.4576C63.7759 35.2659 63.6653 35.0184 63.6653 34.7187C63.6653 34.5229 63.7204 34.3379 63.8311 34.163C63.9442 33.9895 64.1153 33.8519 64.3448 33.752C64.5724 33.652 64.8832 33.6019 65.2784 33.6019C65.7646 33.6019 66.1344 33.6937 66.3885 33.8743C66.6427 34.0559 66.7933 34.3451 66.8414 34.7408L65.7366 34.8076C65.7062 34.6337 65.6444 34.5076 65.5489 34.4297C65.4563 34.3518 65.3279 34.313 65.1621 34.313C65.0257 34.313 64.9221 34.3435 64.8528 34.4019C64.7824 34.4575 64.7481 34.5282 64.7481 34.6131C64.7481 34.6729 64.7771 34.7269 64.8365 34.7743C64.8917 34.8267 65.0214 34.8741 65.2286 34.9186C65.7395 35.0298 66.1068 35.1435 66.3277 35.2575C66.5515 35.3687 66.7145 35.5102 66.8139 35.6798C66.916 35.8462 66.9687 36.034 66.9687 36.2409C66.9687 36.4851 66.8994 36.7116 66.7644 36.9186C66.6318 37.1269 66.4437 37.2837 66.2008 37.3908C65.9576 37.4977 65.6539 37.5518 65.2894 37.5518C64.6403 37.5518 64.1913 37.4284 63.9414 37.1795C63.6943 36.9281 63.555 36.6102 63.5217 36.2241Z" fill="white"/>
<path d="M70.5412 36.3631H68.4309C68.449 36.5337 68.4946 36.6614 68.5692 36.7464C68.6685 36.8658 68.8011 36.9242 68.9669 36.9242C69.0691 36.9242 69.1674 36.8989 69.2596 36.8462C69.3176 36.8129 69.3812 36.756 69.4477 36.6742L70.486 36.7685C70.3231 37.0461 70.1297 37.2462 69.9059 37.3686C69.6849 37.4867 69.3646 37.5464 68.945 37.5464C68.5801 37.5464 68.2931 37.4933 68.0831 37.3907C67.8731 37.2879 67.6991 37.124 67.5637 36.9018C67.4273 36.6767 67.3594 36.4114 67.3594 36.1075C67.3594 35.674 67.4948 35.3242 67.7684 35.0575C68.0445 34.7908 68.4256 34.6575 68.9118 34.6575C69.3052 34.6575 69.616 34.7186 69.8451 34.8406C70.0731 34.96 70.2456 35.1325 70.3644 35.3572C70.4818 35.5837 70.5412 35.8796 70.5412 36.2461V36.3631ZM69.4696 35.8575C69.4502 35.6544 69.395 35.5072 69.3038 35.4183C69.2154 35.3294 69.0995 35.285 68.9559 35.285C68.7901 35.285 68.6547 35.3519 68.5526 35.4853C68.4893 35.5669 68.449 35.6907 68.4309 35.8575H69.4696Z" fill="white"/>
<path d="M73.0839 36.4019L74.0837 36.5186C74.0286 36.7298 73.9374 36.9129 73.8129 37.0686C73.6874 37.2215 73.5259 37.3395 73.3268 37.4241C73.1306 37.5087 72.8821 37.5518 72.5812 37.5518C72.2899 37.5518 72.0467 37.5241 71.8519 37.4686C71.6599 37.4131 71.4944 37.3243 71.3548 37.2019C71.2141 37.0797 71.1034 36.9381 71.0235 36.7743C70.9461 36.6075 70.9072 36.388 70.9072 36.1129C70.9072 35.8323 70.9542 35.5948 71.0511 35.4018C71.1201 35.2659 71.2166 35.1408 71.3382 35.0298C71.4626 34.9186 71.5896 34.8379 71.7193 34.7852C71.9251 34.7006 72.1888 34.6576 72.5094 34.6576C72.9581 34.6576 73.3007 34.7394 73.5368 34.9019C73.7716 35.0615 73.936 35.2965 74.0286 35.6076L73.0397 35.7409C73.0093 35.6229 72.9528 35.534 72.8683 35.4743C72.787 35.4156 72.6763 35.3854 72.537 35.3854C72.3631 35.3854 72.2234 35.449 72.117 35.5743C72.0095 35.7004 71.9569 35.8906 71.9569 36.1463C71.9569 36.3727 72.0095 36.5448 72.117 36.6629C72.2234 36.7823 72.3603 36.8406 72.5261 36.8406C72.6611 36.8406 72.776 36.8062 72.8683 36.7351C72.9637 36.6615 73.0355 36.5505 73.0839 36.4019Z" fill="white"/>
<path d="M77.4714 37.4853H76.4882V37.0351C76.3404 37.2214 76.1912 37.3519 76.0406 37.4297C75.8928 37.5072 75.7104 37.5464 75.4937 37.5464C75.2024 37.5464 74.9744 37.46 74.8089 37.285C74.6459 37.1115 74.5657 36.8435 74.5657 36.4797V34.7186H75.6263V36.2408C75.6263 36.4157 75.6567 36.5394 75.7203 36.6131C75.7822 36.6837 75.872 36.7186 75.9908 36.7186C76.1152 36.7186 76.2174 36.6714 76.2948 36.5739C76.3747 36.4783 76.4161 36.3044 76.4161 36.0519V34.7186H77.4714V37.4853Z" fill="white"/>
<path d="M78.1299 34.7187H79.1131V35.1743C79.2085 34.9783 79.3064 34.8435 79.4058 34.7686C79.5083 34.6949 79.6338 34.6576 79.7816 34.6576C79.9361 34.6576 80.1047 34.7059 80.2896 34.8019L79.964 35.5574C79.8424 35.5059 79.7441 35.4797 79.6709 35.4797C79.5302 35.4797 79.4238 35.5379 79.3506 35.652C79.2403 35.8156 79.1848 36.1172 79.1848 36.5573V37.4854H78.1299V34.7187Z" fill="white"/>
<path d="M83.603 36.3631H81.4927C81.5107 36.5337 81.5563 36.6614 81.6306 36.7464C81.7303 36.8658 81.8629 36.9242 82.0283 36.9242C82.1305 36.9242 82.2288 36.8989 82.3214 36.8462C82.3794 36.8129 82.4427 36.756 82.5091 36.6742L83.5475 36.7685C83.3845 37.0461 83.1911 37.2462 82.9677 37.3686C82.7467 37.4867 82.426 37.5464 82.0064 37.5464C81.6419 37.5464 81.3545 37.4933 81.1445 37.3907C80.9348 37.2879 80.7609 37.124 80.6255 36.9018C80.4887 36.6767 80.4211 36.4114 80.4211 36.1075C80.4211 35.674 80.5562 35.3242 80.8298 35.0575C81.1059 34.7908 81.4871 34.6575 81.9732 34.6575C82.3667 34.6575 82.6774 34.7186 82.9069 34.8406C83.1345 34.96 83.3074 35.1325 83.4262 35.3572C83.5436 35.5837 83.603 35.8796 83.603 36.2461V36.3631ZM82.531 35.8575C82.512 35.6544 82.4565 35.5072 82.3656 35.4183C82.2772 35.3294 82.1609 35.285 82.0174 35.285C81.8515 35.285 81.7165 35.3519 81.6143 35.4853C81.5507 35.5669 81.5107 35.6907 81.4927 35.8575H82.531Z" fill="white"/>
</svg>
